<svg width="209" height="54" viewBox="0 0 209 54" fill="none" xmlns="http://www.w3.org/2000/svg">
<g clip-path="url(#clip0_501_349)">
<path d="M12.2813 7.31103H15.994C18.3343 14.0365 19.5733 24.1414 9.73237 24.1414C5.15607 24.1414 1.92303 21.5567 1.92303 16.935V12.7608C1.92303 10.7951 2.09407 9.41483 -0.00427246 9.58631V7.20646C3.16201 6.54981 5.70673 7.06844 5.70673 10.862V16.9308C5.70673 19.3817 7.25441 21.1719 9.73237 21.1719C15.9565 21.1719 13.7914 11.0335 12.2771 7.30684L12.2813 7.31103ZM23.6699 0C24.8046 0 25.9059 0.757034 25.9059 2.20837C25.9059 3.6597 24.8046 4.45019 23.7033 4.45019C22.6019 4.45019 21.3963 3.72662 21.3963 2.20837C21.3963 0.690114 22.531 0 23.6657 0H23.6699ZM25.5263 23.97H21.7759V7.52015H25.5263V23.97ZM35.776 7.38213H41.5204V10.0715H35.776V17.554C35.776 21.7951 38.425 22.0711 41.8291 20.8665L42.2087 23.6939C36.5311 25.4548 32.0966 24.1414 32.0966 17.6251V10.0715L28.7259 9.8289V7.38213H32.0966L32.4762 2.24183H35.7802V7.38213H35.776ZM60.5098 19.0053C60.5098 20.5236 60.4764 21.4897 62.2994 21.3183V23.8696C59.9257 24.3171 57.4853 24.0411 57.4853 21.2848V20.5947C56.555 22.9034 54.2189 24.2167 51.7743 24.2167C46.7183 24.2167 44.2737 20.1471 44.2737 15.4544C44.378 9.93764 48.2993 6.90114 53.6975 7.0057C56.0711 7.0057 58.3405 7.59125 60.5098 8.55741V19.0053ZM56.8971 10.7281C55.7624 10.2095 54.4901 10.038 53.4221 10.038C50.2558 10.038 48.1241 11.8658 48.0198 15.4544C48.0198 18.4909 49.5008 20.8707 52.5586 20.8707C55.3453 20.8707 56.7887 18.7 56.893 15.63V10.7323L56.8971 10.7281ZM64.573 7.27757C67.1511 6.52053 70.1463 7.03498 70.1463 10.038C71.2142 7.96768 73.4503 6.96806 75.6487 7.00152C77.8513 7.03498 79.7411 8.0346 80.6005 10.1384C81.9437 7.89658 84.1756 6.89696 86.5534 6.93042C91.0588 6.93042 92.2644 10.381 92.2644 14.208V19.5198C92.2644 20.9335 92.2978 21.8662 94.3294 21.5901V23.903C90.821 24.7312 88.4807 23.7985 88.4807 20.0384V14.208C88.5141 11.7236 87.4837 10.0004 85.2811 10.0004C82.9783 10.0338 81.4306 11.6901 81.4306 14.3125V23.97H77.7512V14.3125C77.7846 11.7236 76.6833 10.038 74.3472 10.038C72.0069 10.0715 70.3591 11.7278 70.3591 14.3836V23.97H66.5754V12.6228C66.5754 10.4144 66.542 9.55285 64.5813 9.72433V7.27338L64.573 7.27757ZM99.3896 0C100.524 0 101.626 0.757034 101.626 2.20837C101.626 3.6597 100.524 4.45019 99.423 4.45019C98.3217 4.45019 97.1161 3.72662 97.1161 2.20837C97.1161 0.690114 98.2508 0 99.3854 0H99.3896ZM101.246 23.97H97.4957V7.52015H101.246V23.97ZM104.792 7.27757C107.441 6.62091 110.261 7.27757 110.261 10.038C111.329 7.93422 113.461 6.96806 115.801 6.96806C120.306 6.96806 122.476 9.93346 122.371 14.0741V20.0049C122.371 21.2471 122.68 21.6947 124.299 21.5232V23.903C121.132 24.5221 118.659 24.108 118.659 20.143V14.2122C118.659 11.5897 116.94 10.0046 114.704 10.0046C112.468 10.0046 110.507 11.6274 110.507 14.3167V23.9741H106.757V12.4221C106.757 10.2137 106.861 9.52357 104.829 9.69506L104.796 7.28175L104.792 7.27757ZM136.789 28.0395C141.056 30.2479 147.831 31.3521 147.831 24.5221V21.2806C146.867 23.351 144.94 24.3171 142.466 24.3171C138.787 24.3171 135.103 21.5567 135.103 15.6259C135.207 9.59049 139.333 6.90114 144.494 7.00152C146.834 7.00152 149.137 7.58707 151.306 8.55323V24.5221C151.306 33.3179 142.913 34.765 136.376 31.1764L136.789 28.0395ZM147.622 10.8662C146.488 10.3475 145.32 10.1091 144.147 10.1091C141.085 10.1091 138.92 11.9034 138.816 15.6259C138.816 17.5582 139.196 18.6247 139.984 19.6243C140.81 20.5905 141.945 21.176 143.492 21.176C146.45 21.176 147.618 18.1061 147.618 15.6217V10.862L147.622 10.8662ZM171.188 7.34867V19.2144C171.188 21.2137 171.359 21.7658 172.94 21.5943L172.973 24.0411C170.842 24.4217 167.813 24.8692 167.813 21.2806C166.678 23.5224 164.409 24.246 162.069 24.246C157.492 24.246 155.878 21.038 155.878 16.9684V7.34449H159.662V16.9684C159.628 19.6243 161.038 21.243 163.241 21.243C165.615 21.243 167.438 19.5198 167.438 16.8639V7.34449H171.188V7.34867ZM185.501 6.79658C186.878 6.76312 188.254 7.17719 189.318 7.96768L188.388 11.2091C187.391 10.5525 186.289 10.2095 185.088 10.2095C182.852 10.2095 180.858 11.6567 180.858 14.346V23.97H177.145V11.8992C177.145 10.4144 177.145 9.65741 175.355 9.76198L175.322 7.21065C177.763 6.65856 180.449 7.07262 180.62 9.76198C181.275 7.82966 183.474 6.79658 185.505 6.79658H185.501ZM207.21 7.34867V19.2144C207.21 21.2137 207.381 21.7658 208.962 21.5943L208.996 24.0411C206.864 24.4217 203.835 24.8692 203.835 21.2806C202.701 23.5224 200.431 24.246 198.091 24.246C193.515 24.246 191.9 21.038 191.9 16.9684V7.34449H195.684V16.9684C195.651 19.6243 197.061 21.243 199.263 21.243C201.637 21.243 203.46 19.5198 203.46 16.8639V7.34449H207.21V7.34867Z" fill="url(#paint0_linear_501_349)"/>
</g>
<path d="M6.201 46H5.226V40.579H1.95V46H0.975V39.721H6.201V46ZM11.2809 46.156C9.36985 46.156 8.17385 44.674 8.17385 42.854C8.17385 41.034 9.36985 39.565 11.2809 39.565C13.1919 39.565 14.3879 41.034 14.3879 42.854C14.3879 44.674 13.1919 46.156 11.2809 46.156ZM11.2809 45.285C12.6199 45.285 13.3609 44.141 13.3609 42.854C13.3609 41.58 12.6199 40.436 11.2809 40.436C9.94185 40.436 9.18785 41.58 9.18785 42.854C9.18785 44.141 9.94185 45.285 11.2809 45.285ZM19.4613 46.156C18.6033 46.156 17.8493 45.753 17.3423 45.051V48.392H16.3673V39.721H17.3423V40.657C17.7973 40.02 18.5773 39.565 19.4613 39.565C21.1123 39.565 22.2563 40.813 22.2563 42.854C22.2563 44.882 21.1123 46.156 19.4613 46.156ZM19.2143 45.285C20.4753 45.285 21.2293 44.245 21.2293 42.854C21.2293 41.463 20.4753 40.436 19.2143 40.436C18.4473 40.436 17.6803 40.891 17.3423 41.437V44.271C17.6803 44.817 18.4473 45.285 19.2143 45.285ZM26.3158 46H25.3408V40.579H23.5208V39.721H28.1488V40.579H26.3158V46ZM34.7182 46H33.7432V45.285C33.2232 45.857 32.5082 46.156 31.6632 46.156C30.5972 46.156 29.4662 45.441 29.4662 44.076C29.4662 42.672 30.5972 42.009 31.6632 42.009C32.5212 42.009 33.2362 42.282 33.7432 42.867V41.736C33.7432 40.891 33.0672 40.41 32.1572 40.41C31.4032 40.41 30.7922 40.683 30.2332 41.281L29.7782 40.605C30.4542 39.903 31.2602 39.565 32.2872 39.565C33.6132 39.565 34.7182 40.163 34.7182 41.684V46ZM32.0142 45.454C32.7032 45.454 33.3662 45.194 33.7432 44.674V43.491C33.3662 42.971 32.7032 42.711 32.0142 42.711C31.1042 42.711 30.4672 43.283 30.4672 44.089C30.4672 44.882 31.1042 45.454 32.0142 45.454ZM36.3217 46.156V45.35C36.9067 45.35 37.2707 44.674 37.5177 42.815L37.9207 39.721H42.2887V46H41.3137V40.579H38.7787L38.4927 42.932C38.2067 45.272 37.5307 46.156 36.3217 46.156ZM53.5931 46H52.6181V40.579H49.3421V46H48.3671V39.721H53.5931V46ZM58.673 46.156C56.762 46.156 55.566 44.674 55.566 42.854C55.566 41.034 56.762 39.565 58.673 39.565C60.584 39.565 61.78 41.034 61.78 42.854C61.78 44.674 60.584 46.156 58.673 46.156ZM58.673 45.285C60.012 45.285 60.753 44.141 60.753 42.854C60.753 41.58 60.012 40.436 58.673 40.436C57.334 40.436 56.58 41.58 56.58 42.854C56.58 44.141 57.334 45.285 58.673 45.285ZM66.5284 46.156C64.6564 46.156 63.3954 44.726 63.3954 42.854C63.3954 40.995 64.6564 39.565 66.5284 39.565C67.6724 39.565 68.3484 40.033 68.8294 40.657L68.1794 41.255C67.7634 40.683 67.2304 40.436 66.5804 40.436C65.2414 40.436 64.4094 41.463 64.4094 42.854C64.4094 44.245 65.2414 45.285 66.5804 45.285C67.2304 45.285 67.7634 45.025 68.1794 44.466L68.8294 45.064C68.3484 45.688 67.6724 46.156 66.5284 46.156ZM72.7049 46H71.7299V40.579H69.9099V39.721H74.5379V40.579H72.7049V46ZM81.1074 46H80.1324V45.285C79.6124 45.857 78.8974 46.156 78.0524 46.156C76.9864 46.156 75.8554 45.441 75.8554 44.076C75.8554 42.672 76.9864 42.009 78.0524 42.009C78.9104 42.009 79.6254 42.282 80.1324 42.867V41.736C80.1324 40.891 79.4564 40.41 78.5464 40.41C77.7924 40.41 77.1814 40.683 76.6224 41.281L76.1674 40.605C76.8434 39.903 77.6494 39.565 78.6764 39.565C80.0024 39.565 81.1074 40.163 81.1074 41.684V46ZM78.4034 45.454C79.0924 45.454 79.7554 45.194 80.1324 44.674V43.491C79.7554 42.971 79.0924 42.711 78.4034 42.711C77.4934 42.711 76.8564 43.283 76.8564 44.089C76.8564 44.882 77.4934 45.454 78.4034 45.454ZM86.9749 46H83.4519V39.721H86.9099C88.0149 39.721 88.6779 40.384 88.6779 41.333C88.6779 42.087 88.1969 42.594 87.6639 42.763C88.3009 42.919 88.8079 43.582 88.8079 44.297C88.8079 45.311 88.1319 46 86.9749 46ZM86.7799 45.142C87.4039 45.142 87.7939 44.778 87.7939 44.18C87.7939 43.673 87.4429 43.205 86.7799 43.205H84.4269V45.142H86.7799ZM86.7409 42.347C87.3519 42.347 87.6769 41.97 87.6769 41.476C87.6769 40.93 87.3389 40.579 86.7409 40.579H84.4269V42.347H86.7409ZM98.2941 39.721H99.2691V45.142H100.075V47.599H99.1001V46H91.0401V39.721H92.0151V45.142H94.6671V39.721H95.6421V45.142H98.2941V39.721ZM102.738 46H101.802V39.721H102.777V44.518L106.066 39.721H107.028V46H106.053V41.112L102.738 46ZM114.89 46H113.642L111.38 43.179L110.34 44.206V46H109.365V39.721H110.34V43.062L113.642 39.721H114.877L112.095 42.568L114.89 46ZM121.334 46H120.359V45.285C119.839 45.857 119.124 46.156 118.279 46.156C117.213 46.156 116.082 45.441 116.082 44.076C116.082 42.672 117.213 42.009 118.279 42.009C119.137 42.009 119.852 42.282 120.359 42.867V41.736C120.359 40.891 119.683 40.41 118.773 40.41C118.019 40.41 117.408 40.683 116.849 41.281L116.394 40.605C117.07 39.903 117.876 39.565 118.903 39.565C120.229 39.565 121.334 40.163 121.334 41.684V46ZM118.63 45.454C119.319 45.454 119.982 45.194 120.359 44.674V43.491C119.982 42.971 119.319 42.711 118.63 42.711C117.72 42.711 117.083 43.283 117.083 44.089C117.083 44.882 117.72 45.454 118.63 45.454Z" fill="#999999"/>
<defs>
<linearGradient id="paint0_linear_501_349" x1="-0.000100804" y1="16.5" x2="209" y2="16.5" gradientUnits="userSpaceOnUse">
<stop stop-color="#00AAC4"/>
<stop offset="1" stop-color="#008163"/>
</linearGradient>
<clipPath id="clip0_501_349">
<rect width="209" height="33" fill="white"/>
</clipPath>
</defs>
</svg>
