<svg width="32" height="32" viewBox="0 0 32 32" fill="none" xmlns="http://www.w3.org/2000/svg">
<g clip-path="url(#clip0_501_262)">
<path d="M16 32C24.8366 32 32 24.8366 32 16C32 7.16344 24.8366 0 16 0C7.16344 0 0 7.16344 0 16C0 24.8366 7.16344 32 16 32Z" fill="url(#paint0_linear_501_262)"/>
<path d="M7.24327 15.8309C11.9064 13.7982 15.0179 12.4558 16.5736 11.8058C21.0174 9.95823 21.9411 9.63622 22.5429 9.62615C22.7643 9.62213 22.9816 9.68653 23.1628 9.81131C23.2896 9.922 23.3721 10.077 23.3902 10.244C23.4224 10.4533 23.4304 10.6646 23.4164 10.874C23.1748 13.4038 22.1343 19.5441 21.605 22.3779C21.3816 23.5854 20.9389 23.9879 20.5122 24.0181C19.5824 24.1026 18.878 23.4043 17.9784 22.8106C16.5696 21.8868 15.7746 21.3132 14.408 20.4116C12.8282 19.3711 13.8526 18.8015 14.7522 17.8636C14.9877 17.6181 19.0813 13.8948 19.1618 13.5567C19.1839 13.4561 19.1557 13.3494 19.0873 13.2729C18.9887 13.2106 18.8639 13.1985 18.7552 13.2407C18.6143 13.2729 16.3643 14.7602 12.007 17.7006C11.3691 18.1394 10.7894 18.3527 10.2722 18.3406C9.70063 18.3285 8.60176 18.0186 7.78465 17.7529C6.77836 17.4269 5.98541 17.2558 6.05585 16.7024C6.09006 16.4226 6.48453 16.1328 7.24327 15.8309Z" fill="white"/>
</g>
<defs>
<linearGradient id="paint0_linear_501_262" x1="16.2013" y1="-0.456855" x2="16.2013" y2="31.7444" gradientUnits="userSpaceOnUse">
<stop stop-color="#2AABEE"/>
<stop offset="1" stop-color="#229ED9"/>
</linearGradient>
<clipPath id="clip0_501_262">
<rect width="32" height="32" fill="white"/>
</clipPath>
</defs>
</svg>
