<svg width="21" height="23" viewBox="0 0 21 23" fill="none" xmlns="http://www.w3.org/2000/svg">
<symbol id="user">
<g clip-path="url(#clip0_495_232)">
<path d="M20.5814 19.9851C20.1373 18.5326 16.5598 16.5607 14.8979 15.8386C14.7837 15.7879 14.6569 15.7922 14.5427 15.8471L10.5085 17.7936L6.89287 15.8555C6.78292 15.7964 6.65606 15.7879 6.53766 15.8344C5.08719 16.396 0.858437 18.3721 0.435562 20.0062C0.13532 21.1716 0.0126863 21.7417 0.00845751 21.767C0.00422876 21.7966 0 21.8261 0 21.8557C0 22.4299 0.287555 22.7002 0.528594 22.8269C0.88381 23.0126 1.31091 22.9958 1.7507 22.9873C1.84374 22.9873 1.941 22.9873 2.03826 22.9873H18.9533C19.0801 22.9873 19.207 22.9915 19.3296 22.9958C19.4523 23 19.5749 23.0042 19.6891 23.0042C20.0147 23.0042 21 23.0042 21 21.9148C21 21.4714 20.9577 21.2265 20.5856 19.9936L20.5814 19.9851ZM19.6891 22.1513C19.5834 22.1513 19.4734 22.1513 19.3635 22.1428C19.2324 22.1386 19.0971 22.1344 18.9575 22.1344H2.04249C1.941 22.1344 1.83951 22.1344 1.73802 22.1344C1.64921 22.1344 1.56041 22.1344 1.47161 22.1344C1.3532 22.1344 1.05719 22.1344 0.926098 22.0668C0.900725 22.0541 0.858437 22.033 0.84998 21.8895C0.88381 21.7332 1.01067 21.1759 1.26017 20.2131C1.50544 19.2588 4.51631 17.5529 6.66875 16.6873L10.3012 18.6339C10.4197 18.6972 10.5634 18.7015 10.6861 18.6424L14.7372 16.6873C17.118 17.7556 19.5368 19.4489 19.7737 20.23C20.1331 21.4165 20.1542 21.5897 20.1542 21.9064C20.1542 22.1006 20.1542 22.1513 19.6891 22.1513Z" />
<path d="M6.05981 10.8688C6.28816 11.4388 6.54611 11.8442 6.82098 12.2749C6.8971 12.3973 6.97745 12.5198 7.05779 12.6465C7.33266 13.094 7.61176 13.4318 7.92046 13.6894C7.89931 14.1074 7.84857 14.6184 7.75554 14.9984C7.70056 15.2264 7.84011 15.4544 8.06424 15.5093C8.29259 15.5642 8.52094 15.4249 8.57592 15.2011C8.70278 14.6859 8.76198 13.985 8.77467 13.4994C8.77467 13.3558 8.71123 13.2207 8.59283 13.1405C8.30527 12.942 8.04732 12.6465 7.78091 12.2073C7.70056 12.0722 7.61599 11.9455 7.53564 11.8188C7.24386 11.3586 6.99013 10.9617 6.77447 10.3663C6.71949 10.2101 6.55457 10.1003 6.38965 10.0876C6.34736 10.0876 6.23741 10.0158 6.17821 9.91027C5.75111 9.12911 5.56927 7.93414 5.64962 7.68923C5.6623 7.68079 5.70882 7.66812 5.81031 7.66812C5.92871 7.67657 6.03866 7.6259 6.12324 7.54145C6.20358 7.457 6.2501 7.34721 6.24587 7.22898C6.15707 4.80526 7.04933 3.50473 7.81474 2.83757C7.95429 2.71512 8.0008 2.51666 7.92046 2.34776C7.91623 2.33509 7.90777 2.32665 7.90354 2.31398C8.26299 2.0733 8.87193 2.08597 8.87616 2.09019L8.90153 1.66794L9.24829 1.42726C9.21869 1.36392 9.27789 1.20768 9.35823 1.06834C9.59927 1.2668 9.92066 1.41037 10.2167 1.49482C11.0836 1.7355 11.7137 1.98463 12.1069 2.15353C13.9084 2.86713 14.8894 4.71659 14.7964 7.22898C14.7964 7.34299 14.8345 7.45278 14.9106 7.533C14.9867 7.61323 15.0967 7.6639 15.2108 7.6639C15.287 7.6639 15.3292 7.68079 15.325 7.67235C15.4138 7.92992 15.232 9.12911 14.8049 9.91027C14.7457 10.0201 14.6357 10.0876 14.5934 10.0961C14.437 10.1172 14.3101 10.2227 14.2551 10.3663C14.0352 10.9575 13.7688 11.3713 13.4897 11.8146C13.4052 11.9497 13.3163 12.0849 13.2318 12.2242C12.9738 12.6465 12.7412 12.9294 12.496 13.1152C12.3903 13.1954 12.331 13.3221 12.331 13.453C12.331 13.8372 12.3649 14.5804 12.5467 15.2433C12.5975 15.4291 12.7666 15.5558 12.9527 15.5558C12.9907 15.5558 13.0288 15.5515 13.0626 15.5389C13.2867 15.4755 13.4221 15.2433 13.3586 15.0195C13.2275 14.5381 13.1895 13.9808 13.1768 13.643C13.439 13.4023 13.6885 13.0856 13.9464 12.6633C14.031 12.524 14.1156 12.3973 14.1959 12.2664C14.4581 11.8526 14.733 11.4262 14.9656 10.8519C15.1981 10.7463 15.4096 10.5521 15.5407 10.3114C16.0312 9.4078 16.3188 7.9637 16.1158 7.38944C16.0354 7.1572 15.8663 6.9883 15.6379 6.8954C15.6379 4.21833 14.4412 2.16619 12.4241 1.36814C12.0224 1.19079 11.35 0.928999 10.4323 0.671426C10.0306 0.561641 9.83608 0.375851 9.81494 0.342071C9.79802 0.228063 9.73459 0.126723 9.63733 0.0633853C9.5443 4.76968e-05 9.42589 -0.0252873 9.31172 -0.00417481C8.94382 0.0676078 8.6182 0.561641 8.49134 0.878329C8.44059 1.00923 8.40676 1.1359 8.38985 1.25836C7.83165 1.33858 7.04511 1.6046 6.82944 2.39421C6.80407 2.46599 6.79561 2.542 6.8083 2.61378C6.07672 3.43295 5.37475 4.76304 5.37475 6.87007C5.11679 6.95452 4.93073 7.13186 4.84615 7.38099C4.64317 7.95103 4.9265 9.39935 5.42126 10.303C5.56081 10.5605 5.79339 10.759 6.04712 10.8561L6.05981 10.8688Z"/>
</g>
<defs>
<clipPath id="clip0_495_232">
<rect width="21" height="23" fill="white"/>
</clipPath>
</defs>
</symbol>

</svg>
