<svg xmlns="http://www.w3.org/2000/svg" xmlns:xlink="http://www.w3.org/1999/xlink" viewBox="0 0 388.5 107.65"><defs><style>.cls-1,.cls-10,.cls-11,.cls-12,.cls-13,.cls-14,.cls-15,.cls-16,.cls-17,.cls-18,.cls-19,.cls-20,.cls-21,.cls-22,.cls-23,.cls-24,.cls-25,.cls-26,.cls-27,.cls-28,.cls-29,.cls-3,.cls-30,.cls-31,.cls-32,.cls-33,.cls-34,.cls-35,.cls-36,.cls-37,.cls-38,.cls-39,.cls-4,.cls-40,.cls-41,.cls-42,.cls-43,.cls-44,.cls-45,.cls-46,.cls-47,.cls-48,.cls-49,.cls-5,.cls-50,.cls-51,.cls-52,.cls-53,.cls-54,.cls-6,.cls-7,.cls-8,.cls-9{fill:none;}.cls-2{clip-path:url(#clip-path);}.cls-3{stroke:#705ab8;stroke-width:2.84px;}.cls-10,.cls-11,.cls-12,.cls-13,.cls-14,.cls-15,.cls-16,.cls-17,.cls-18,.cls-19,.cls-20,.cls-21,.cls-22,.cls-23,.cls-24,.cls-25,.cls-26,.cls-27,.cls-28,.cls-29,.cls-3,.cls-30,.cls-31,.cls-32,.cls-33,.cls-34,.cls-35,.cls-36,.cls-37,.cls-38,.cls-39,.cls-4,.cls-40,.cls-41,.cls-42,.cls-43,.cls-44,.cls-45,.cls-46,.cls-47,.cls-48,.cls-49,.cls-5,.cls-50,.cls-51,.cls-52,.cls-53,.cls-54,.cls-6,.cls-7,.cls-8,.cls-9{stroke-miterlimit:10;}.cls-4{stroke:#7259b6;stroke-width:2.8px;}.cls-5{stroke:#7459b4;stroke-width:2.76px;}.cls-6{stroke:#7658b2;stroke-width:2.73px;}.cls-7{stroke:#7858b0;stroke-width:2.69px;}.cls-8{stroke:#7a57ae;stroke-width:2.65px;}.cls-9{stroke:#7c56ac;stroke-width:2.62px;}.cls-10{stroke:#7e56a9;stroke-width:2.58px;}.cls-11{stroke:#8055a7;stroke-width:2.55px;}.cls-12{stroke:#8255a5;stroke-width:2.51px;}.cls-13{stroke:#8454a3;stroke-width:2.47px;}.cls-14{stroke:#8653a1;stroke-width:2.44px;}.cls-15{stroke:#88539f;stroke-width:2.4px;}.cls-16{stroke:#89529d;stroke-width:2.37px;}.cls-17{stroke:#8b519b;stroke-width:2.33px;}.cls-18{stroke:#8d5199;stroke-width:2.3px;}.cls-19{stroke:#8f5097;stroke-width:2.26px;}.cls-20{stroke:#915095;stroke-width:2.22px;}.cls-21{stroke:#934f93;stroke-width:2.19px;}.cls-22{stroke:#954e91;stroke-width:2.15px;}.cls-23{stroke:#974e8e;stroke-width:2.12px;}.cls-24{stroke:#994d8c;stroke-width:2.08px;}.cls-25{stroke:#9b4d8a;stroke-width:2.04px;}.cls-26{stroke:#9d4c88;stroke-width:2.01px;}.cls-27{stroke:#9f4b86;stroke-width:1.97px;}.cls-28{stroke:#a14b84;stroke-width:1.93px;}.cls-29{stroke:#a34a82;stroke-width:1.9px;}.cls-30{stroke:#a54a80;stroke-width:1.86px;}.cls-31{stroke:#a7497e;stroke-width:1.83px;}.cls-32{stroke:#a9487c;stroke-width:1.79px;}.cls-33{stroke:#ab487a;stroke-width:1.75px;}.cls-34{stroke:#ad4778;stroke-width:1.72px;}.cls-35{stroke:#af4775;stroke-width:1.68px;}.cls-36{stroke:#b14673;stroke-width:1.65px;}.cls-37{stroke:#b34571;stroke-width:1.61px;}.cls-38{stroke:#b5456f;stroke-width:1.58px;}.cls-39{stroke:#b7446d;stroke-width:1.54px;}.cls-40{stroke:#b9446b;stroke-width:1.5px;}.cls-41{stroke:#bb4369;stroke-width:1.47px;}.cls-42{stroke:#bc4267;stroke-width:1.43px;}.cls-43{stroke:#be4265;stroke-width:1.4px;}.cls-44{stroke:#c04163;stroke-width:1.36px;}.cls-45{stroke:#c24061;stroke-width:1.32px;}.cls-46{stroke:#c4405f;stroke-width:1.29px;}.cls-47{stroke:#c63f5d;stroke-width:1.25px;}.cls-48{stroke:#c83f5a;stroke-width:1.22px;}.cls-49{stroke:#ca3e58;stroke-width:1.18px;}.cls-50{stroke:#cc3d56;stroke-width:1.14px;}.cls-51{stroke:#ce3d54;stroke-width:1.11px;}.cls-52{stroke:#d03c52;stroke-width:1.07px;}.cls-53{stroke:#d23c50;stroke-width:1.04px;}.cls-54{stroke:#d43b4e;}.cls-55{clip-path:url(#clip-path-2);}.cls-56{fill:#705ab8;}</style><clipPath id="clip-path"><path class="cls-1" d="M155.66,34.61,165,46.07A29.6,29.6,0,0,1,171,44a34.86,34.86,0,0,1,6.37-.44v25H187.7v-25h9.06v-9Zm44.76,0v34h25.77v-9H210.71V55.9h15.12v-9H210.71V43.57h15.48v-9Zm88.29,0v12H276.54v-12H266.26v34h10.28v-13h12.17v13H299v-34Zm-59.77,17c0,10.44,8,17.57,18.68,17.57a16,16,0,0,0,15.43-9.93l-8.86-4.08a7.19,7.19,0,0,1-6.57,4.94c-4.94,0-8.24-3.76-8.24-8.5s3.3-8.5,8.24-8.5a7.19,7.19,0,0,1,6.57,4.94l8.86-4.13c-2-4.68-6.52-9.88-15.43-9.88-10.64,0-18.68,7.08-18.68,17.57"/></clipPath><clipPath id="clip-path-2"><rect class="cls-1" width="388.5" height="107.65"/></clipPath></defs><title>logo</title><g id="Слой_2" data-name="Слой 2"><g id="Слой_2-2" data-name="Слой 2"><g class="cls-2"><line class="cls-3" x1="186.81" y1="0.9" x2="100.41" y2="106.75"/><line class="cls-4" x1="190.76" y1="0.9" x2="104" y2="106.73"/><line class="cls-5" x1="194.7" y1="0.9" x2="107.6" y2="106.7"/><line class="cls-6" x1="198.65" y1="0.9" x2="111.19" y2="106.67"/><line class="cls-7" x1="202.6" y1="0.9" x2="114.78" y2="106.65"/><line class="cls-8" x1="206.55" y1="0.9" x2="118.37" y2="106.62"/><line class="cls-9" x1="210.5" y1="0.9" x2="121.96" y2="106.6"/><line class="cls-10" x1="214.44" y1="0.9" x2="125.55" y2="106.57"/><line class="cls-11" x1="218.39" y1="0.9" x2="129.15" y2="106.55"/><line class="cls-12" x1="222.34" y1="0.9" x2="132.74" y2="106.52"/><line class="cls-13" x1="226.29" y1="0.9" x2="136.33" y2="106.5"/><line class="cls-14" x1="230.23" y1="0.9" x2="139.92" y2="106.47"/><line class="cls-15" x1="234.18" y1="0.9" x2="143.51" y2="106.45"/><line class="cls-16" x1="238.13" y1="0.9" x2="147.1" y2="106.42"/><line class="cls-17" x1="242.08" y1="0.9" x2="150.69" y2="106.4"/><line class="cls-18" x1="246.03" y1="0.9" x2="154.29" y2="106.37"/><line class="cls-19" x1="249.97" y1="0.9" x2="157.88" y2="106.34"/><line class="cls-20" x1="253.92" y1="0.9" x2="161.47" y2="106.32"/><line class="cls-21" x1="257.87" y1="0.9" x2="165.06" y2="106.29"/><line class="cls-22" x1="261.82" y1="0.9" x2="168.65" y2="106.27"/><line class="cls-23" x1="265.76" y1="0.9" x2="172.25" y2="106.24"/><line class="cls-24" x1="269.71" y1="0.9" x2="175.84" y2="106.22"/><line class="cls-25" x1="273.66" y1="0.9" x2="179.43" y2="106.19"/><line class="cls-26" x1="277.61" y1="0.9" x2="183.02" y2="106.17"/><line class="cls-27" x1="281.56" y1="0.9" x2="186.61" y2="106.14"/><line class="cls-28" x1="285.5" y1="0.9" x2="190.2" y2="106.12"/><line class="cls-29" x1="289.45" y1="0.9" x2="193.8" y2="106.09"/><line class="cls-30" x1="293.4" y1="0.9" x2="197.39" y2="106.06"/><line class="cls-31" x1="297.35" y1="0.9" x2="200.98" y2="106.04"/><line class="cls-32" x1="301.29" y1="0.9" x2="204.57" y2="106.01"/><line class="cls-33" x1="305.24" y1="0.9" x2="208.16" y2="105.99"/><line class="cls-34" x1="309.19" y1="0.9" x2="211.75" y2="105.96"/><line class="cls-35" x1="313.14" y1="0.9" x2="215.35" y2="105.94"/><line class="cls-36" x1="317.09" y1="0.9" x2="218.94" y2="105.91"/><line class="cls-37" x1="321.03" y1="0.9" x2="222.53" y2="105.89"/><line class="cls-38" x1="324.98" y1="0.9" x2="226.12" y2="105.86"/><line class="cls-39" x1="328.93" y1="0.9" x2="229.71" y2="105.84"/><line class="cls-40" x1="332.88" y1="0.9" x2="233.3" y2="105.81"/><line class="cls-41" x1="336.82" y1="0.9" x2="236.9" y2="105.79"/><line class="cls-42" x1="340.77" y1="0.9" x2="240.49" y2="105.76"/><line class="cls-43" x1="344.72" y1="0.9" x2="244.08" y2="105.73"/><line class="cls-44" x1="348.67" y1="0.9" x2="247.67" y2="105.71"/><line class="cls-45" x1="352.61" y1="0.9" x2="251.26" y2="105.68"/><line class="cls-46" x1="356.56" y1="0.9" x2="254.85" y2="105.66"/><line class="cls-47" x1="360.51" y1="0.9" x2="258.45" y2="105.63"/><line class="cls-48" x1="364.46" y1="0.9" x2="262.04" y2="105.61"/><line class="cls-49" x1="368.41" y1="0.9" x2="265.63" y2="105.58"/><line class="cls-50" x1="372.35" y1="0.9" x2="269.22" y2="105.56"/><line class="cls-51" x1="376.3" y1="0.9" x2="272.81" y2="105.53"/><line class="cls-52" x1="380.25" y1="0.9" x2="276.4" y2="105.5"/><line class="cls-53" x1="384.2" y1="0.9" x2="280" y2="105.48"/><line class="cls-54" x1="388.14" y1="0.9" x2="283.59" y2="105.45"/></g><g class="cls-55"><path class="cls-56" d="M0,51.62c0-10.9,8.4-17.57,18.69-17.57,8.09,0,12.78,4.48,14.92,8.86L25,47.34a7.1,7.1,0,0,0-6.26-4.22c-4.94,0-8.25,3.76-8.25,8.5s3.31,8.5,8.25,8.5A10.07,10.07,0,0,0,24,58.6V57.37H17.67v-9H34.22v13.9a20.15,20.15,0,0,1-15.53,6.88C8.4,69.19,0,62.47,0,51.62"/><path class="cls-56" d="M57.48,68.58,52.8,57.88H49.08v10.7H38.8v-34H56.92c8,0,12.22,5.3,12.22,11.66A10.94,10.94,0,0,1,63,56.56l6.17,12Zm1.23-22.36c0-1.83-1.63-2.64-3.36-2.64H49.08v5.34h6.27c1.73,0,3.36-.81,3.36-2.7"/><path class="cls-56" d="M71.48,51.62c0-10.44,8.1-17.57,18.59-17.57s18.58,7.13,18.58,17.57-8.09,17.57-18.58,17.57S71.48,62.06,71.48,51.62m26.74,0c0-4.74-3.21-8.5-8.15-8.5s-8.15,3.76-8.15,8.5,3.21,8.5,8.15,8.5,8.15-3.77,8.15-8.5"/><path class="cls-56" d="M109.72,63.79l5.35-7.64a15.78,15.78,0,0,0,11,4.38c1.93,0,3.76-.51,3.76-1.83,0-3.26-18.94,0-18.94-13.34,0-5.76,4.79-11.26,14.11-11.26a22.39,22.39,0,0,1,14.41,4.74l-5.5,7.28a17.2,17.2,0,0,0-10-3.36c-2,0-2.6.66-2.6,1.53,0,3.21,18.89.46,18.89,13.08,0,7.49-5.55,11.82-14.66,11.82-7.23,0-12.17-2.14-15.79-5.4"/><path class="cls-56" d="M140.93,63.79l5.35-7.64a15.78,15.78,0,0,0,10.95,4.38c1.93,0,3.76-.51,3.76-1.83,0-3.26-18.94,0-18.94-13.34,0-5.76,4.79-11.26,14.11-11.26a22.39,22.39,0,0,1,14.41,4.74l-5.5,7.28a17.2,17.2,0,0,0-10-3.36c-2,0-2.6.66-2.6,1.53,0,3.21,18.89.46,18.89,13.08,0,7.49-5.55,11.82-14.66,11.82-7.23,0-12.17-2.14-15.79-5.4"/></g></g></g></svg>